<svg xmlns="http://www.w3.org/2000/svg" width="234.999" height="44.373" viewBox="0 0 234.999 44.373">
  <g id="Group_3808" data-name="Group 3808" transform="translate(-375 -19)">
    <path id="Path_381" data-name="Path 381" d="M293.9,201.282a5.745,5.745,0,0,0,3-5.27c0-3.744-2.7-6.163-6.873-6.163h-7.568a.438.438,0,0,0-.453.453v18.031a.438.438,0,0,0,.453.453h4.262a.439.439,0,0,0,.453-.453l-.016-6.158h1.659l2.765,6.228a.542.542,0,0,0,.575.383h4.726a.4.4,0,0,0,.347-.18.417.417,0,0,0,.007-.406Zm-4.172-3.428-2.552.015-.031-3.589.015-.181v.18h2.568c1.256,0,2.005.668,2.005,1.787S290.98,197.854,289.724,197.854Z" transform="translate(144.854 -159.132)" fill="#06c"/>
    <path id="Path_382" data-name="Path 382" d="M331.35,189.849H319.193a.439.439,0,0,0-.453.453v18.031a.439.439,0,0,0,.453.453H331.35a.439.439,0,0,0,.453-.453v-3.524a.438.438,0,0,0-.453-.453l-7.442.016-.016-2.962h6.119a.438.438,0,0,0,.453-.453v-3.442a.438.438,0,0,0-.453-.453l-6.1.016-.016-2.8h7.458a.438.438,0,0,0,.453-.453V190.3A.439.439,0,0,0,331.35,189.849Z" transform="translate(125.029 -159.132)" fill="#06c"/>
    <path id="Path_383" data-name="Path 383" d="M360.447,190.245a.53.53,0,0,0-.526-.4h-4.453a.529.529,0,0,0-.525.393l-6.421,18.034a.392.392,0,0,0,.039.361.383.383,0,0,0,.323.149h4.48a.531.531,0,0,0,.527-.4l.836-2.742H360.5l.836,2.745a.53.53,0,0,0,.526.4h4.508a.381.381,0,0,0,.323-.15.391.391,0,0,0,.038-.363Zm-2.783,5.923,1.524,5.129h-3.121Z" transform="translate(108.973 -159.132)" fill="#06c"/>
    <path id="Path_384" data-name="Path 384" d="M403.629,204.165l-7.852.015V190.3a.438.438,0,0,0-.453-.453h-4.262a.438.438,0,0,0-.453.453v18.031a.438.438,0,0,0,.453.453h12.566a.439.439,0,0,0,.453-.453v-3.715A.438.438,0,0,0,403.629,204.165Z" transform="translate(86.248 -159.132)" fill="#06c"/>
    <rect id="Rectangle_263" data-name="Rectangle 263" width="5.168" height="18.936" rx="0.984" transform="translate(491.447 30.717)" fill="#06c"/>
    <path id="Path_385" data-name="Path 385" d="M451.213,190.037l-.052-.052a.425.425,0,0,0-.319-.135h-14.26l-.126.006a.451.451,0,0,0-.327.447v3.716a.511.511,0,0,0,.047.244l.05.1.039,0a.32.32,0,0,0,.237.107l4.628-.016v13.96a.318.318,0,0,0,.107.236.354.354,0,0,0,.264.134h4.344a.334.334,0,0,0,.237-.057.457.457,0,0,0,.217-.314V194.471h4.6a.385.385,0,0,0,.263-.107.488.488,0,0,0,.135-.346V190.3a.387.387,0,0,0-.074-.223Z" transform="translate(61.686 -159.132)" fill="#06c"/>
    <path id="Path_386" data-name="Path 386" d="M485.43,189.849h-4.207a.62.62,0,0,0-.6.375l-2.94,6.089-3-6.1a.646.646,0,0,0-.593-.364H469.8a.411.411,0,0,0-.345.16.427.427,0,0,0-.034.4l5.608,11.053v6.868a.438.438,0,0,0,.453.453h4.262a.438.438,0,0,0,.453-.453v-6.868l5.618-11.078a.415.415,0,0,0-.037-.383A.4.4,0,0,0,485.43,189.849Z" transform="translate(43.734 -159.132)" fill="#06c"/>
    <path id="Path_387" data-name="Path 387" d="M524.8,189.849h-3.988a.605.605,0,0,0-.63.382l-4.071,9.446-4.173-9.438a.61.61,0,0,0-.633-.389h-4.043a.438.438,0,0,0-.453.453v18.031a.438.438,0,0,0,.453.453h3.8a.438.438,0,0,0,.453-.453v-9.006l2.781,6.476a.777.777,0,0,0,.674.443H517.1a.772.772,0,0,0,.685-.465l2.769-6.452v9a.438.438,0,0,0,.453.453h3.8a.438.438,0,0,0,.453-.453V190.3A.438.438,0,0,0,524.8,189.849Z" transform="translate(23.543 -159.132)" fill="#f49331"/>
    <rect id="Rectangle_264" data-name="Rectangle 264" width="5.168" height="18.936" rx="0.984" transform="translate(551.445 30.717)" fill="#f49331"/>
    <path id="Path_388" data-name="Path 388" d="M576.761,199.017l5.131-8.587a.356.356,0,0,0-.314-.581h-4.59a.658.658,0,0,0-.62.363l-2.44,4.179-2.439-4.179a.632.632,0,0,0-.621-.363h-4.59a.368.368,0,0,0-.331.163.414.414,0,0,0,.013.41l5.162,8.595-5.524,9.208a.4.4,0,0,0-.007.4.365.365,0,0,0,.331.163h4.589a.661.661,0,0,0,.621-.362l2.794-4.781,2.794,4.779a.658.658,0,0,0,.621.364h4.589a.381.381,0,0,0,.354-.186.372.372,0,0,0-.036-.387Z" transform="translate(-8.15 -159.132)" fill="#f49331"/>
    <rect id="Rectangle_265" data-name="Rectangle 265" width="4.703" height="4.676" rx="0.984" transform="translate(574.916 44.978)" fill="#f49331"/>
    <path id="Path_389" data-name="Path 389" d="M624.217,193.786a2.329,2.329,0,0,1,2.266,1.64.431.431,0,0,0,.4.31.558.558,0,0,0,.223-.052l3.632-1.584a.441.441,0,0,0,.271-.258.506.506,0,0,0-.037-.354c-1.088-2.8-3.515-4.349-6.834-4.349-3.475,0-5.933,1.674-6.919,4.713a23.543,23.543,0,0,0,0,10.165c.986,3.039,3.443,4.713,6.919,4.713,3.319,0,5.746-1.545,6.832-4.343a.512.512,0,0,0,.039-.36.437.437,0,0,0-.27-.258l-3.634-1.586a.565.565,0,0,0-.222-.052.427.427,0,0,0-.394.3,2.335,2.335,0,0,1-2.269,1.646,1.98,1.98,0,0,1-2.07-1.49c-.179-.54-.264-1.076-.264-3.658s.085-3.119.265-3.661A1.978,1.978,0,0,1,624.217,193.786Z" transform="translate(-35.734 -158.748)" fill="#f49331"/>
    <path id="Path_390" data-name="Path 390" d="M663.668,193.963V190.3a.438.438,0,0,0-.453-.453H650.649a.438.438,0,0,0-.453.453v3.716a.438.438,0,0,0,.453.453h6.91l-7.551,9.828a.639.639,0,0,0-.113.373v3.66a.438.438,0,0,0,.453.453h12.867a.438.438,0,0,0,.453-.453v-3.715a.438.438,0,0,0-.453-.453H656l7.552-9.829A.643.643,0,0,0,663.668,193.963Z" transform="translate(-53.67 -159.132)" fill="#f49331"/>
    <path id="Path_391" data-name="Path 391" d="M169.361,185.626a21.252,21.252,0,0,0,21.228,21.228c3.324,0,9.332-1.8,10.4-2.13l9.847,4.014a.438.438,0,0,0,.168.033.445.445,0,0,0,.437-.532l-2.331-11.652c.379-.979,2.711-7.157,2.711-10.96a21.228,21.228,0,1,0-42.456,0Zm4.293.108a17.064,17.064,0,0,1,4.912-11.682,16.622,16.622,0,0,1,11.993-5.222,16.309,16.309,0,0,1,11.47,5.087c3.36,3.369,5.443,7.949,5.434,11.956-.007,3.562-2.837,9.13-2.865,9.186a.446.446,0,0,0-.04.294l1.372,6.565-4.761-2.221a.445.445,0,0,0-.377,0,29.18,29.18,0,0,1-10.72,2.285h-.147C182.4,201.982,173.654,194.885,173.654,185.734Z" transform="translate(205.639 -145.398)" fill="#f49331"/>
    <path id="Path_392" data-name="Path 392" d="M207.887,194.912h-3.652v-1.4h2.246l-5.321-5.455v-3.893h-5.187v3.559h-6.756l-4.517,6.091h2.649v11.881h23.68v-7.486ZM197,199.6h-3.256V195.32H197Z" transform="translate(197.361 -156.063)" fill="#f49331"/>
  </g>
</svg>
