<svg xmlns="http://www.w3.org/2000/svg" id="iDNES.cz" width="496" height="242" viewBox="0 0 496 242"><defs><style>.cls-3{fill-rule:evenodd;fill:#e2001a}.cls-4{fill:#003a74}</style></defs><path d="M0 93 135 0h10l46 21h-3s16.749 10.528 21 15c-4.774-.891-28.2-11.964-35-15-.952-.425-6-2-6-2a57 57 0 0 0 5 3c9.792 5.316 30 16 30 16a33 33 0 0 1-4 0c-1.353.1 23 12 23 12h-4l57 27a28 28 0 0 1-3 0c-.5-.022-131-58-131-58L38 89l12 13-20 110 110 1a.58.58 0 0 1 0 1c-.718.575-19 1-19 1a2.5 2.5 0 0 0 0 1c.1.048 7.716-.25 8 0a1.19 1.19 0 0 1 0 1s-27.636 1.631-28 2a1.37 1.37 0 0 0 0 1s9.977-.233 13 0c.61.047 0 1 0 1s-9.079.513-12 1c-.649.108 0 1 0 1a8 8 0 0 0 2 1c2.167.142 6.808-.4 9 0 .624.113 0 1 0 1s-30.96-.18-38 0a1.07 1.07 0 0 0-1 1 1.33 1.33 0 0 0 1 1c5.1.291 26.541-.155 33 0a.4.4 0 0 1 .181.013c.619.38-.181.987-.181.987l-90 1-8-8 21-113H5Z" style="fill:#868889;fill-rule:evenodd"/><path id="reality" d="M93.463 148.11c2.268-10.854 9.558-29.322 22.032-29.322 2.592 0 4.374 1.134 5.508 1.134a1.58 1.58 0 0 0 .972-.81l6.8-16.362a3.8 3.8 0 0 0 .324-1.3c0-1.458-3.078-2.106-5.508-2.106-12.474 0-20.736 11.5-25.11 16.362 0-9.072-1.458-16.362-3.24-16.362a3.8 3.8 0 0 0-1.62.486l-12.96 5.022c-.81.324-1.944.648-1.944 1.782 0 2.916 1.458 5.184 1.458 10.044 0 5.184-1.134 9.234-1.944 13.284l-11.013 48.767a3.5 3.5 0 0 0-.162 1.782c0 1.3.81 1.62 2.106 1.62h15.067c1.62 0 1.782-.162 2.268-1.944Zm81.324 15.229c-.324-.648-.486-1.134-1.3-1.134-2.43 0-11.016 6.48-20.574 6.48-15.228 0-13.932-12.474-13.932-17.334 9.234 0 50.382 0 50.382-30.619 0-12.96-8.748-21.384-23.976-21.384-24.948 0-45.847 23-45.847 55.405 0 17.982 8.748 30.132 28.189 30.132 16.524 0 31.59-7.938 31.59-10.044a5.2 5.2 0 0 0-.486-1.458Zm-12.312-49.411c4.86 0 7.452 3.726 7.452 7.938 0 14.9-21.708 14.9-28.674 14.9 1.458-5.99 5.994-22.838 21.222-22.838m76.788 32.238c-2.268 10.207-8.424 22.519-20.413 22.519-4.374 0-6.8-3.4-6.8-9.72 0-16.849 7.128-45.037 20.9-45.037 5.832 0 9.558 3.888 11.988 5.832Zm15.39 33.211c.81-.324 1.944-.648 1.944-1.782 0-1.944-1.134-5.832-1.3-9.72a65.6 65.6 0 0 1 1.3-11.5l10.692-50.707a8 8 0 0 0 .324-1.944 1.576 1.576 0 0 0-1.782-1.62h-12.8a2.073 2.073 0 0 0-2.268 1.62l-1.782 4.374c-2.592-2.754-7.452-8.748-17.982-8.748-20.575 0-38.4 26.73-38.4 58.807 0 17.01 6.156 26.73 17.982 26.73 14.094 0 22.519-10.53 26.083-14.58 0 8.1 1.3 14.58 3.078 14.58a5.7 5.7 0 0 0 1.944-.486Zm48.923-11.988a1.08 1.08 0 0 0-1.134-1.134c-.81 0-3.24 1.134-5.994 1.134-2.43 0-3.726-.972-3.726-3.24s1.134-6.318 1.944-10.206L312.972 69.7a22 22 0 0 0 .486-3.24c0-1.134-.162-1.62-.81-1.62a14.4 14.4 0 0 0-2.268.486l-14.256 2.916c-2.43.486-2.592 1.134-2.916 2.754L275.226 154.1a76.4 76.4 0 0 0-1.945 17.172c0 10.53 6.319 13.608 15.715 13.608 6.318 0 16.362-2.268 16.362-4.7 0-.486-.162-1.134-.162-1.62Zm49.248-61.723a8.6 8.6 0 0 0 .162-2.106q0-1.458-1.944-1.458H320.91c-1.62 0-2.106.162-2.43 1.944l-1.783 9.072a8 8 0 0 0-.324 1.944c0 1.134.648 1.62 2.107 1.62h12.312l-13.122 62.047a7.3 7.3 0 0 0-.162 1.782c0 1.3.81 1.62 2.106 1.62h15.066c1.62 0 1.944-.162 2.268-1.944Zm8.586-27.541c0-7.938-6.8-13.284-13.446-13.284a13.365 13.365 0 1 0 13.446 13.284m46.655 87.968c-.324-.81-.486-1.134-1.3-1.134-.972 0-7.291 3.726-14.581 3.726q-6.318 0-6.318-5.832a32.2 32.2 0 0 1 1.134-7.776l7.776-38.395h20.9c1.458 0 1.62-.162 2.268-1.62l3.24-9.072a12 12 0 0 0 .648-2.268c0-.972-.81-1.62-2.268-1.62h-21.706l4.536-20.413a12.7 12.7 0 0 0 .325-2.268 1.31 1.31 0 0 0-1.134-1.458c-.811 0-1.459.162-2.107.162l-14.742 2.106a2.054 2.054 0 0 0-2.106 1.782l-4.212 20.087h-11.34a1.958 1.958 0 0 0-2.268 1.944l-1.944 8.91a8.2 8.2 0 0 0-.324 2.106c0 1.134.648 1.62 2.106 1.62h10.692l-8.748 41.473a44.3 44.3 0 0 0-1.3 10.368c0 11.988 7.776 16.362 19.44 16.362 10.368 0 25.921-4.536 25.921-7.128 0-.486-.162-.972-.162-1.458Zm50.218-22.843a268 268 0 0 0-10.368 27.055h-.324c0-1.782-.648-18.792-1.458-29.161l-2.916-37.26c-.324-2.592-.324-3.24-1.62-3.24-.648 0-2.106.162-3.4.324l-11.988 1.62c-1.782.162-2.43.972-2.43 1.62a11 11 0 0 0 .162 2.106l8.586 73.711c.162 2.106 1.134 2.106 2.268 2.106h6.642l-5.346 10.044c-3.078 5.67-6.8 8.1-13.77 8.1-6.156 0-10.207-3.4-12.151-3.4-.648 0-.81.324-1.458 1.3l-5.832 10.206a5.2 5.2 0 0 0-.486 1.458c0 1.944 10.044 6.643 19.117 6.643 23.49 0 32.886-26.407 41.31-43.741l32.079-66.265a9 9 0 0 0 1.134-2.754c0-.648-.648-.972-2.43-1.134l-11.988-1.62c-1.458-.162-2.268-.324-2.916-.324a1.93 1.93 0 0 0-1.621 1.3Z" style="fill-rule:evenodd;fill:#1d80d7"/><path id="D" d="M188.021 196.513h6.487L193.432 203h-6.487Z" class="cls-3"/><path id="N" d="M224.937 196.513h6.487L230.348 203h-6.487Z" class="cls-3"/><path id="E" d="M261.977 196.513h6.488L267.389 203H260.9Z" class="cls-3"/><path id="iDNES.cz-2" d="M181.34 210a1.7 1.7 0 0 0 .032-.864.88.88 0 0 0-.8-.224h-12.8a.97.97 0 0 0-.768.192 2.7 2.7 0 0 0-.256.832l-1.088 5.44q-.192.768.768.768h3.972l-5 23.422a.95.95 0 0 0 .032.768 1.23 1.23 0 0 0 .864.192h7.744a1 1 0 0 0 .64-.128 1.5 1.5 0 0 0 .256-.576Zm3.072-13.44a5.9 5.9 0 0 0-1.28-1.92 6.3 6.3 0 0 0-1.92-1.312 5.8 5.8 0 0 0-2.368-.48 6 6 0 0 0-2.4.48 6.2 6.2 0 0 0-1.952 1.312 5.8 5.8 0 0 0-1.28 1.92 6 6 0 0 0-.448 2.3 6.2 6.2 0 0 0 .448 2.336 5.7 5.7 0 0 0 1.28 1.952 6.3 6.3 0 0 0 1.92 1.312 5.8 5.8 0 0 0 2.368.48 6 6 0 0 0 2.4-.48 5.8 5.8 0 0 0 1.92-1.312 6.5 6.5 0 0 0 1.28-1.952 5.9 5.9 0 0 0 .48-2.336 6 6 0 0 0-.448-2.302Zm23.615 19.616a45 45 0 0 1-1.027 4.99 32.5 32.5 0 0 1-1.536 4.48 18.6 18.6 0 0 1-1.856 3.424 7.9 7.9 0 0 1-3.008 2.43 12.5 12.5 0 0 1-5.12.832 2.2 2.2 0 0 1-.768.032q-.641-.032-.768-.032l5.824-27.52h1.732a17 17 0 0 1 2.944.192 5.4 5.4 0 0 1 1.856.7q2.112 1.344 2.112 5.5a34 34 0 0 1-.385 4.97Zm9.824-11.3a12.8 12.8 0 0 0-2.912-4.736 11.5 11.5 0 0 0-2.3-1.7 12.3 12.3 0 0 0-2.784-1.088 20.4 20.4 0 0 0-3.584-.576q-2.016-.159-4.64-.16h-9.28a1.9 1.9 0 0 0-.96.128 1.9 1.9 0 0 0-.256.768l-8.835 41.414a2.9 2.9 0 0 0-.1 1.216.76.76 0 0 0 .864.384h9.792q2.88 0 5.376-.192a30.6 30.6 0 0 0 4.672-.7 16.8 16.8 0 0 0 4-1.472 14.8 14.8 0 0 0 3.36-2.432 18.9 18.9 0 0 0 3.488-4.576 37.7 37.7 0 0 0 2.72-6.08 44.6 44.6 0 0 0 1.792-6.88 39.7 39.7 0 0 0 .64-6.976 18.3 18.3 0 0 0-1.053-6.34Zm40.928-7.168a1.85 1.85 0 0 0 .064-.8.62.62 0 0 0-.7-.288h-7.616a1.44 1.44 0 0 0-.832.16 1.4 1.4 0 0 0-.32.736l-4.032 18.944q-.384 1.728-.544 3.04t-.352 2.464q-.705-2.816-1.536-5.312l-6.336-19.2a1.7 1.7 0 0 0-.352-.7 1.35 1.35 0 0 0-.736-.128h-6.208a1.27 1.27 0 0 0-.8.16 1.64 1.64 0 0 0-.288.736l-8.9 41.856a2.9 2.9 0 0 0-.1.864q.032.288.608.288h7.68a1.43 1.43 0 0 0 .832-.16 1.4 1.4 0 0 0 .32-.736l4.352-20.288q.319-1.472.48-2.592t.352-2.784q.384 1.409.7 2.592t.64 2.272l6.784 20.864a2.2 2.2 0 0 0 .32.7 1.33 1.33 0 0 0 .768.128h5.7a1.43 1.43 0 0 0 .832-.16 1.4 1.4 0 0 0 .32-.736Zm32.512.384a2.3 2.3 0 0 0 .256-1.12q-.065-.351-.9-.352h-23.484a1.27 1.27 0 0 0-.8.16 1.64 1.64 0 0 0-.288.736l-8.832 41.472a2.9 2.9 0 0 0-.032 1.12.69.69 0 0 0 .8.416h22.976a1.43 1.43 0 0 0 .832-.16 1.5 1.5 0 0 0 .32-.8l1.216-6.016a2.9 2.9 0 0 0 .064-.992.69.69 0 0 0-.768-.288h-13.76l2.24-10.5H282.2a1.27 1.27 0 0 0 .8-.16 1.66 1.66 0 0 0 .288-.736l1.344-6.208a2.2 2.2 0 0 0 .064-.864.69.69 0 0 0-.768-.288h-11.005l1.792-8.64h12.608a1.26 1.26 0 0 0 1.28-.7Zm28.671 2.88a2.34 2.34 0 0 0 .448-1.248 2.54 2.54 0 0 0-.96-1.056 9.2 9.2 0 0 0-2.24-1.248 22 22 0 0 0-2.848-.928 25 25 0 0 0-3.04-.576 23 23 0 0 0-2.88-.192q-8 0-12.544 3.808t-4.544 10.528a11.1 11.1 0 0 0 .64 3.936 9.3 9.3 0 0 0 1.792 2.976 16 16 0 0 0 1.888 1.728q.991.768 2.912 2.048l4.1 2.688a9.2 9.2 0 0 1 2.368 2.048 4 4 0 0 1 .7 2.432 4.5 4.5 0 0 1-1.632 3.616 7.1 7.1 0 0 1-4.7 1.376 13 13 0 0 1-3.424-.448 18.5 18.5 0 0 1-3.1-1.152q-1.281-.639-1.728-.9a4 4 0 0 0-.9-.384 1.06 1.06 0 0 0-1.472.64l-3.136 5.76a1.17 1.17 0 0 0-.192 1.184 2.46 2.46 0 0 0 1.024.8 24.5 24.5 0 0 0 6.048 2.24 27.3 27.3 0 0 0 6.176.768 21.8 21.8 0 0 0 7.04-1.088 16.1 16.1 0 0 0 5.5-3.1 14.2 14.2 0 0 0 3.584-4.8 14.6 14.6 0 0 0 1.28-6.176 9.52 9.52 0 0 0-1.888-6.016 19.3 19.3 0 0 0-5.216-4.48 47 47 0 0 1-4.416-2.88 22 22 0 0 1-2.24-1.92 2.96 2.96 0 0 1-.9-2.176 4.48 4.48 0 0 1 1.538-3.486 6.4 6.4 0 0 1 4.416-1.376 11.4 11.4 0 0 1 3.232.48 17.2 17.2 0 0 1 3.3 1.376q.639.321 1.216.576a2.8 2.8 0 0 0 1.152.256.92.92 0 0 0 .9-.512Zm12.256 31.264a6.93 6.93 0 0 0-3.648-3.648 6.6 6.6 0 0 0-2.656-.544 6.7 6.7 0 0 0-2.72.544 7.3 7.3 0 0 0-2.176 1.44 6.5 6.5 0 0 0-1.472 2.176 6.8 6.8 0 0 0-.544 2.688 6.6 6.6 0 0 0 .544 2.656 7.4 7.4 0 0 0 1.472 2.208 6.7 6.7 0 0 0 2.176 1.5 6.76 6.76 0 0 0 5.312 0 7.17 7.17 0 0 0 3.712-3.712 6.76 6.76 0 0 0 0-5.306Zm33.759-20.576a1.35 1.35 0 0 0 .1-.64 1 1 0 0 0-.48-.64 14.9 14.9 0 0 0-8.9-2.56 16.55 16.55 0 0 0-10.88 3.584 19.5 19.5 0 0 0-5.6 7.68 25.3 25.3 0 0 0-1.952 9.856q0 5.952 3.392 9.312t9.408 3.36a19.7 19.7 0 0 0 8.576-2.095 1.68 1.68 0 0 0 .928-.825 1.9 1.9 0 0 0-.16-.826l-1.792-5.15a.605.605 0 0 0-.736-.48 9.4 9.4 0 0 0-1.44.416 14.5 14.5 0 0 1-2.3.768 9.5 9.5 0 0 1-2.176.256q-4.032 0-4.032-4.431a23.6 23.6 0 0 1 .864-6.2 14.2 14.2 0 0 1 2.656-5.363 6.39 6.39 0 0 1 5.184-2.312 7.9 7.9 0 0 1 2.688.416 9.6 9.6 0 0 1 2.176 1.12 1.54 1.54 0 0 0 1.184.384 1.6 1.6 0 0 0 .8-.832Zm27.968-1.792a.715.715 0 0 0-.832-.96h-22.4a1.2 1.2 0 0 0-.672.128 1.27 1.27 0 0 0-.288.64l-1.216 5.824a1.7 1.7 0 0 0-.032.864.69.69 0 0 0 .672.224h11.584l-17.6 17.536-1.088 5.632a.59.59 0 0 0 .064.64 1.36 1.36 0 0 0 .7.128h22.528a3.3 3.3 0 0 0 .832-.064 1.4 1.4 0 0 0 .512-.576l3.456-5.824a1.63 1.63 0 0 0 .256-.928.77.77 0 0 0-.832-.288h-14.14l17.344-17.536Z" class="cls-3" data-name="iDNES.cz"/><circle cx="178.766" cy="199.016" r="6.766" class="cls-4"/><circle id="Ellipse_1_copy" cx="325.765" cy="235.016" r="6.766" class="cls-4" data-name="Ellipse 1 copy"/></svg>