<svg width="206" height="48" viewBox="0 0 206 48" fill="none" xmlns="http://www.w3.org/2000/svg">
<g clip-path="url(#clip0_15693_3101)">
<path d="M98.0342 -3.91006e-05H133.244V14.2307H98.0342V-3.91006e-05Z" fill="#E30613"/>
<path fill-rule="evenodd" clip-rule="evenodd" d="M103.309 5.59186L103.623 3.67257H103.922C104.55 3.67257 104.969 3.95302 104.849 4.61753C104.745 5.34077 104.116 5.59186 103.488 5.59186H103.309ZM99.165 12.3977H103.264C105.986 12.3977 107.108 10.5966 107.332 9.2236C107.572 7.73248 106.929 6.81727 105.448 6.69904V6.66955C106.734 6.66955 107.721 5.69509 107.916 4.44031C108.305 2.03386 106.33 1.26611 104.535 1.26611H100.945L99.165 12.3977ZM102.606 9.99134L102.95 7.85071H103.189C103.892 7.85071 104.416 8.16066 104.296 8.91365C104.176 9.66652 103.533 9.99134 102.86 9.99134H102.606ZM107.112 12.3995L108.709 2.41017H111.448L110.226 10.0413H112.28L111.904 12.3995H107.112ZM119.01 2.41018H113.923L112.325 12.3995H117.413L117.789 10.0413H115.44L115.681 8.5177H117.789L118.178 6.15952H116.071L116.285 4.76836H118.635L119.01 2.41018ZM118.323 9.03442C118.618 9.59091 119.182 10.1473 119.88 10.1473C120.256 10.1473 120.726 9.92203 120.793 9.4849C120.833 9.2463 120.779 9.07412 120.659 8.92841C120.565 8.78258 120.43 8.66334 120.269 8.5441C119.799 8.13345 119.397 7.74926 119.115 7.2723C118.86 6.80858 118.726 6.25222 118.846 5.52356C119.034 4.35764 120.122 2.23794 122.457 2.23794C123.115 2.23794 123.8 2.43671 124.323 2.74136L123.84 5.77527C123.598 5.27184 123.035 4.70212 122.404 4.70212C122.081 4.70212 121.652 4.92736 121.598 5.31155C121.558 5.52355 121.652 5.70897 121.773 5.86804C121.852 5.97206 121.96 6.06474 122.059 6.14979L122.059 6.14981C122.111 6.19472 122.161 6.23749 122.202 6.27869C122.712 6.67611 123.115 7.04706 123.357 7.49755C123.598 7.94804 123.692 8.47793 123.572 9.23307C123.276 11.0879 121.719 12.5717 119.813 12.5717C119.115 12.5717 118.43 12.426 117.826 12.161L118.323 9.03442ZM127.102 7.81562L128.068 12.3995H131.008L129.397 7.23253L132.351 2.41017H129.464L127.29 6.66293H127.276L127.947 2.41017H125.209L123.612 12.3995H126.35L127.088 7.81562H127.102Z" fill="white"/>
</g>
<path d="M69.0896 17.6335C71.3728 17.6335 73.163 18.2291 74.4603 19.4201C75.7836 20.6111 76.4453 22.1904 76.4453 24.1581V29.1681C76.4452 29.2976 76.3933 29.4141 76.2895 29.5177C76.2117 29.5953 76.1079 29.6342 75.9782 29.6342H67.416C67.2863 29.6342 67.2215 29.6988 67.2215 29.8283V31.2654C67.2215 31.9126 67.39 32.4564 67.7273 32.8965C68.0905 33.3107 68.5448 33.5177 69.0896 33.5177C69.5826 33.5177 69.9846 33.3624 70.296 33.0517C70.6073 32.7151 70.815 32.3009 70.9188 31.809C70.9966 31.5501 71.1652 31.4206 71.4246 31.4205L75.9005 31.6535C76.0302 31.6536 76.1339 31.7054 76.2117 31.809C76.3155 31.8867 76.3545 32.0032 76.3285 32.1585C76.1469 34.1521 75.4463 35.6668 74.2268 36.7025C73.0333 37.7122 71.3209 38.2171 69.0896 38.2171C66.7804 38.2171 64.977 37.6473 63.6797 36.5081C62.3824 35.343 61.7337 33.7378 61.7337 31.6925V24.1581C61.7337 22.1904 62.3824 20.6111 63.6797 19.4201C65.0029 18.2291 66.8064 17.6335 69.0896 17.6335ZM111.564 17.6335C113.873 17.6335 115.69 18.2291 117.013 19.4201C118.336 20.6111 118.998 22.1905 118.998 24.1581V31.6925C118.998 33.712 118.336 35.3044 117.013 36.4694C115.716 37.6346 113.899 38.2171 111.564 38.2171C109.255 38.2171 107.439 37.6345 106.115 36.4694C104.818 35.3044 104.17 33.712 104.17 31.6925V24.1581C104.17 22.1904 104.831 20.6111 106.154 19.4201C107.478 18.2291 109.281 17.6335 111.564 17.6335ZM163.409 17.6335C165.718 17.6335 167.534 18.2291 168.857 19.4201C170.181 20.6111 170.842 22.1904 170.842 24.1581V31.6925C170.842 33.712 170.181 35.3044 168.857 36.4694C167.56 37.6345 165.744 38.2171 163.409 38.2171C161.099 38.2171 159.283 37.6345 157.96 36.4694C156.663 35.3044 156.014 33.712 156.014 31.6925V24.1581C156.014 22.1904 156.676 20.6111 157.999 19.4201C159.322 18.2291 161.125 17.6335 163.409 17.6335ZM179.613 17.6724C181.767 17.6724 183.466 18.242 184.712 19.3812C185.983 20.5204 186.619 22.0609 186.619 24.0027C186.619 24.1322 186.567 24.2487 186.463 24.3522C186.385 24.4299 186.281 24.4688 186.152 24.4688H181.987C181.857 24.4688 181.741 24.4299 181.637 24.3522C181.559 24.2487 181.52 24.1321 181.52 24.0027V23.6921C181.52 23.1743 181.351 22.7601 181.014 22.4494C180.703 22.1128 180.288 21.9444 179.769 21.9444C179.224 21.9444 178.796 22.1256 178.484 22.4881C178.173 22.8246 178.017 23.2261 178.017 23.6921C178.017 24.3135 178.277 24.8054 178.796 25.1678C179.341 25.5044 180.158 25.88 181.248 26.2943C182.363 26.7085 183.31 27.1358 184.089 27.5759C184.893 27.9902 185.581 28.5986 186.152 29.4012C186.722 30.1779 187.008 31.1617 187.008 32.3526C187.008 34.1391 186.346 35.5631 185.023 36.6246C183.726 37.6603 181.987 38.1782 179.808 38.1782C177.602 38.1782 175.838 37.6603 174.515 36.6246C173.217 35.5631 172.569 34.1521 172.569 32.3915V32.1196C172.569 31.9902 172.608 31.8866 172.685 31.809C172.789 31.7054 172.906 31.6536 173.036 31.6535H177.317C177.446 31.6535 177.55 31.7054 177.628 31.809C177.732 31.8866 177.784 31.9902 177.784 32.1196V32.2361C177.784 32.7798 177.978 33.2331 178.368 33.5956C178.757 33.9322 179.237 34.1003 179.808 34.1003C180.327 34.1003 180.729 33.9579 181.014 33.6732C181.325 33.3625 181.481 32.9741 181.481 32.5081C181.481 31.9385 181.235 31.4982 180.742 31.1875C180.249 30.8509 179.691 30.5791 179.068 30.3719C178.471 30.1389 178.056 29.9835 177.823 29.9059C176.396 29.3881 175.189 28.6762 174.203 27.77C173.243 26.8379 172.763 25.5044 172.763 23.7697C172.763 21.8797 173.386 20.391 174.631 19.3036C175.877 18.2162 177.537 17.6724 179.613 17.6724ZM48.2032 10.7207C48.4626 10.7207 48.6314 10.85 48.7092 11.1089L53.5741 26.1388C53.6001 26.2165 53.6391 26.2553 53.6909 26.2554C53.7687 26.2295 53.8077 26.1776 53.8077 26.0999L53.7687 11.1867C53.7687 11.0573 53.8076 10.9535 53.8854 10.8758C53.9892 10.7723 54.106 10.7207 54.2357 10.7207H58.7506C58.8803 10.7207 58.9841 10.7723 59.0619 10.8758C59.1657 10.9535 59.2176 11.0572 59.2176 11.1867V37.4402C59.2176 37.5696 59.1656 37.6862 59.0619 37.7897C58.9841 37.8674 58.8803 37.9062 58.7506 37.9062H53.6132C53.3537 37.9062 53.1849 37.7767 53.1071 37.5178L48.2812 22.4881C48.2552 22.4104 48.2033 22.3846 48.1254 22.4105C48.0736 22.4105 48.0477 22.4493 48.0477 22.527L48.0864 37.4402C48.0864 37.5696 48.0347 37.6862 47.9309 37.7897C47.8531 37.8674 47.7491 37.9062 47.6194 37.9062H43.1047C42.975 37.9062 42.8582 37.8674 42.7545 37.7897C42.6766 37.6862 42.6377 37.5696 42.6377 37.4402V11.1867C42.6377 11.0572 42.6766 10.9535 42.7545 10.8758C42.8582 10.7723 42.975 10.7207 43.1047 10.7207H48.2032ZM96.7442 17.6335C98.5085 17.6335 99.8319 18.2291 100.714 19.4201C101.596 20.6111 102.037 22.2812 102.037 24.4301V37.4402C102.037 37.5697 101.985 37.6862 101.881 37.7897C101.804 37.8674 101.7 37.9062 101.57 37.9062H97.0164C96.8867 37.9062 96.7699 37.8674 96.6662 37.7897C96.5884 37.6862 96.5494 37.5696 96.5494 37.4402V24.7796C96.5494 24.0029 96.3937 23.4073 96.0824 22.993C95.771 22.5529 95.3559 22.3329 94.837 22.3329C94.2662 22.3329 93.8122 22.5529 93.4749 22.993C93.1635 23.4073 93.0079 24.0029 93.0079 24.7796V37.4402C93.0079 37.5697 92.9559 37.6862 92.8521 37.7897C92.7742 37.8674 92.6705 37.9062 92.5408 37.9062H88.0262C87.8964 37.9062 87.7797 37.8674 87.6759 37.7897C87.5981 37.6862 87.5591 37.5696 87.5591 37.4402V24.7796C87.5591 24.0029 87.4034 23.4073 87.0921 22.993C86.7808 22.5529 86.3656 22.3329 85.8467 22.3329C85.2759 22.3329 84.8217 22.5529 84.4844 22.993C84.173 23.4073 84.0173 24.0029 84.0173 24.7796V37.4402C84.0173 37.5696 83.9655 37.6862 83.8618 37.7897C83.784 37.8674 83.68 37.9062 83.5503 37.9062H78.9969C78.8672 37.9062 78.7504 37.8674 78.6466 37.7897C78.5688 37.6862 78.5298 37.5697 78.5298 37.4402V18.4104C78.5298 18.281 78.5688 18.1772 78.6466 18.0995C78.7504 17.996 78.8672 17.9444 78.9969 17.9444H83.5503C83.68 17.9444 83.784 17.996 83.8618 18.0995C83.9656 18.1772 84.0173 18.281 84.0173 18.4104V18.9151C84.0173 18.9928 84.0434 19.0447 84.0953 19.0706C84.1472 19.0964 84.199 19.0834 84.2508 19.0316C84.7698 18.5138 85.3408 18.1515 85.9635 17.9444C86.5862 17.7373 87.1828 17.6335 87.7536 17.6335C89.7774 17.6335 91.2306 18.4361 92.1128 20.0413L92.1905 20.0802C92.2684 20.0802 92.3593 20.0026 92.4631 19.8472C93.0079 19.0187 93.6566 18.4492 94.409 18.1385C95.1874 17.8019 95.9658 17.6335 96.7442 17.6335ZM125.255 17.9054C125.566 17.9055 125.734 18.0478 125.76 18.3326L127.551 29.0127C127.577 29.0904 127.616 29.1292 127.667 29.1292C127.719 29.1292 127.758 29.0904 127.784 29.0127L129.536 18.3326C129.562 18.0478 129.73 17.9055 130.041 17.9054L135.062 17.983C135.425 17.983 135.568 18.1514 135.49 18.488L130.82 37.5178C130.742 37.7767 130.56 37.9062 130.275 37.9062H125.06C124.774 37.9062 124.593 37.7767 124.515 37.5178L119.806 18.4102V18.255C119.806 18.022 119.948 17.9054 120.234 17.9054H125.255ZM142.323 17.9441C142.453 17.9441 142.557 17.996 142.635 18.0995C142.739 18.1772 142.79 18.2808 142.79 18.4102V37.4402C142.79 37.5696 142.739 37.6862 142.635 37.7897C142.557 37.8674 142.453 37.9062 142.323 37.9062H137.77C137.64 37.9062 137.524 37.8674 137.42 37.7897C137.342 37.6862 137.303 37.5697 137.303 37.4402V18.4102C137.303 18.2807 137.342 18.1772 137.42 18.0995C137.524 17.996 137.64 17.9441 137.77 17.9441H142.323ZM151.148 12.9733C151.278 12.9733 151.382 13.0249 151.46 13.1285C151.563 13.2061 151.615 13.3097 151.615 13.4391V17.75C151.615 17.8795 151.68 17.9444 151.81 17.9444H153.989C154.119 17.9444 154.223 17.996 154.301 18.0995C154.405 18.1772 154.456 18.281 154.456 18.4104V21.3229C154.456 21.4524 154.405 21.5689 154.301 21.6725C154.223 21.7502 154.119 21.789 153.989 21.789H151.81C151.68 21.789 151.615 21.8539 151.615 21.9834V31.2264C151.615 31.9773 151.758 32.4952 152.043 32.78C152.329 33.0648 152.757 33.1941 153.328 33.1682H153.6C153.73 33.1682 153.834 33.2201 153.912 33.3236C154.015 33.4013 154.067 33.5048 154.067 33.6342V37.4402C154.067 37.5696 154.015 37.6862 153.912 37.7897C153.834 37.8674 153.73 37.9062 153.6 37.9062H152.043C150.149 37.9062 148.722 37.5955 147.762 36.9742C146.802 36.3269 146.322 35.1101 146.322 33.3236V21.9834C146.322 21.8539 146.257 21.789 146.128 21.789H144.843C144.714 21.789 144.597 21.7502 144.493 21.6725C144.415 21.5689 144.376 21.4524 144.376 21.3229V18.4104C144.376 18.281 144.415 18.1772 144.493 18.0995C144.597 17.996 144.714 17.9444 144.843 17.9444H146.128C146.257 17.9444 146.322 17.8795 146.322 17.75V13.4391C146.322 13.3097 146.361 13.2061 146.439 13.1285C146.543 13.0249 146.659 12.9733 146.789 12.9733H151.148ZM194.563 12.9733C194.693 12.9733 194.796 13.025 194.874 13.1285C194.978 13.2061 195.03 13.3097 195.03 13.4391V17.75C195.03 17.8794 195.095 17.9444 195.224 17.9444H197.404C197.534 17.9444 197.637 17.996 197.715 18.0995C197.819 18.1772 197.871 18.281 197.871 18.4104V21.3229C197.871 21.4524 197.819 21.5689 197.715 21.6725C197.637 21.7502 197.534 21.789 197.404 21.789H195.224C195.095 21.789 195.03 21.8539 195.03 21.9834V31.2264C195.03 31.9773 195.172 32.4952 195.458 32.78C195.743 33.0648 196.171 33.1941 196.742 33.1682H197.015C197.144 33.1682 197.248 33.2201 197.326 33.3236C197.43 33.4013 197.482 33.5048 197.482 33.6342V37.4402C197.482 37.5697 197.43 37.6862 197.326 37.7897C197.248 37.8674 197.144 37.9062 197.015 37.9062H195.458C193.564 37.9062 192.137 37.5955 191.177 36.9742C190.217 36.3269 189.737 35.1101 189.737 33.3236V21.9834C189.737 21.8539 189.672 21.789 189.542 21.789H188.258C188.128 21.789 188.011 21.7501 187.907 21.6725C187.83 21.5689 187.791 21.4524 187.791 21.3229V18.4104C187.791 18.281 187.83 18.1772 187.907 18.0995C188.011 17.996 188.128 17.9444 188.258 17.9444H189.542C189.672 17.9444 189.737 17.8795 189.737 17.75V13.4391C189.737 13.3097 189.776 13.2061 189.854 13.1285C189.957 13.025 190.074 12.9733 190.204 12.9733H194.563ZM204.799 17.9441C204.929 17.9441 205.033 17.996 205.111 18.0995C205.214 18.1772 205.266 18.2807 205.266 18.4102V37.4402C205.266 37.5697 205.214 37.6862 205.111 37.7897C205.033 37.8674 204.929 37.9062 204.799 37.9062H200.246C200.116 37.9062 199.999 37.8674 199.895 37.7897C199.817 37.6862 199.779 37.5697 199.779 37.4402V18.4102C199.779 18.2807 199.817 18.1772 199.895 18.0995C199.999 17.996 200.116 17.9441 200.246 17.9441H204.799ZM111.564 22.3329C110.993 22.3329 110.526 22.5399 110.163 22.9541C109.826 23.3684 109.657 23.8993 109.657 24.5466V31.2654C109.657 31.9126 109.826 32.4434 110.163 32.8576C110.526 33.2718 110.993 33.4788 111.564 33.4788C112.135 33.4788 112.602 33.2718 112.965 32.8576C113.329 32.4434 113.51 31.9126 113.51 31.2654V24.5466C113.51 23.8993 113.329 23.3684 112.965 22.9541C112.602 22.5399 112.135 22.3329 111.564 22.3329ZM163.409 22.3329C162.838 22.3329 162.371 22.5399 162.008 22.9541C161.67 23.3684 161.502 23.8993 161.502 24.5466V31.2654C161.502 31.9126 161.67 32.4434 162.008 32.8576C162.371 33.2718 162.838 33.4788 163.409 33.4788C163.979 33.4788 164.447 33.2718 164.81 32.8576C165.173 32.4434 165.355 31.9126 165.355 31.2654V24.5466C165.355 23.8993 165.173 23.3684 164.81 22.9541C164.447 22.5399 163.979 22.3329 163.409 22.3329ZM69.0896 22.3329C68.5448 22.3329 68.0905 22.5399 67.7273 22.9541C67.39 23.3684 67.2215 23.8993 67.2215 24.5466V26.0613C67.2215 26.1906 67.2863 26.2554 67.416 26.2554H70.763C70.8927 26.2554 70.9575 26.1906 70.9575 26.0613V24.5466C70.9575 23.8993 70.776 23.3684 70.4127 22.9541C70.0755 22.5399 69.6344 22.3329 69.0896 22.3329ZM139.988 9.55554C140.897 9.55557 141.623 9.84022 142.168 10.4098C142.739 10.9794 143.024 11.7173 143.024 12.6235C143.024 13.5038 142.739 14.2417 142.168 14.8372C141.597 15.4068 140.871 15.6917 139.988 15.6917C139.106 15.6917 138.367 15.4068 137.77 14.8372C137.199 14.2417 136.914 13.5038 136.914 12.6235C136.914 11.7173 137.199 10.9794 137.77 10.4098C138.341 9.84024 139.08 9.55554 139.988 9.55554ZM202.464 9.55554C203.372 9.55556 204.099 9.84022 204.643 10.4098C205.214 10.9794 205.5 11.7173 205.5 12.6235C205.5 13.5038 205.214 14.2417 204.643 14.8372C204.073 15.4068 203.346 15.6917 202.464 15.6917C201.582 15.6917 200.842 15.4068 200.246 14.8372C199.675 14.2417 199.389 13.5038 199.389 12.6235C199.389 11.7173 199.675 10.9794 200.246 10.4098C200.816 9.84022 201.556 9.55554 202.464 9.55554Z" fill="black"/>
<path d="M20.2677 21.8887C26.1989 21.8887 31.0072 26.6856 31.0072 32.6028C31.0072 34.4729 30.5262 36.2307 29.682 37.761L35.9079 43.9722C36.2285 44.292 36.2285 44.8104 35.9079 45.1302L33.2718 47.7601C32.9512 48.0799 32.4316 48.0799 32.111 47.7601L26.0001 41.6635C24.3413 42.7103 22.3756 43.3169 20.2677 43.3169C14.3366 43.3169 9.52836 38.52 9.52832 32.6028C9.52832 26.6856 14.3366 21.8887 20.2677 21.8887ZM20.2677 27.2457C17.3021 27.2457 14.898 29.6442 14.898 32.6028C14.8981 35.5614 17.3022 37.9598 20.2677 37.9598C23.2333 37.9598 25.6374 35.5613 25.6375 32.6028C25.6375 29.6442 23.2333 27.2458 20.2677 27.2457Z" fill="#E30613"/>
<path d="M13.9144 10.746C14.1916 10.5598 14.5545 10.5597 14.8317 10.746L27.8838 19.5198C28.1102 19.672 28.2461 19.9266 28.2461 20.1991V21.8821C26.0018 20.1986 23.2114 19.2006 20.1874 19.2006C12.774 19.2007 6.76419 25.1971 6.76418 32.5941C6.76419 34.5653 7.19107 36.4371 7.95749 38.1224H1.32083C0.867564 38.1224 0.500039 37.7557 0.5 37.3034V20.1991C0.5 19.9267 0.635926 19.672 0.86232 19.5198L3.63209 17.6578V11.5371C3.63209 11.0848 3.99963 10.7181 4.45292 10.7181H8.1806C8.63393 10.7181 9.00143 11.0847 9.00143 11.5371V14.0485L13.9144 10.746Z" fill="black"/>
<defs>
<clipPath id="clip0_15693_3101">
<rect width="35.2102" height="14.2308" fill="white" transform="translate(98.0342)"/>
</clipPath>
</defs>
</svg>
