<svg fill="none" height="24" viewBox="0 0 175 24" width="175" xmlns="http://www.w3.org/2000/svg"><g clip-rule="evenodd" fill-rule="evenodd"><path d="m103.314 14.452c-.754 3.4775-1.595 3.9823-2.472 4.2716l-.093.0235c-.9575.2414-1.6123.4066-1.7429-1.4323-.3315-2.3255.0456-6.3285.2558-8.55982l.0001-.00107c.0281-.29837.0532-.56503.0733-.79173.2619-2.96466.8627-4.6341 2.7397-5.34131 2.202-.72743 2.655 2.54315 1.239 11.83113zm-17.8805-11.31521c.4157-.18417 2.9039-.64156 3.0553-.61239.1215 0 .4564.08603.6238.35167.1012.16098-.0923 1.41354-.3123 2.83756-.143.92587-.2972 1.92423-.3889 2.74216-.1655 1.47565-.0349 3.85771.3037 4.22651.3481.3804 3.37.6972 5.7537.1277.2922-.0698.5554-.1382.795-.2005 1.1743-.3051 1.7806-.4627 2.438.0944.7908.67-.1674 2.8402-.8356 3.7016-1.3739 1.4487-6.1284 1.9296-8.2152 1.6549-3.1248-.4123-4.7432-3.3178-4.867-4.5596l-1.5428.039c.8181 1.7652.8902 2.9339.5622 3.4038-.5182.6874-2.0849 2.0456-2.4376 1.7314-.3027-.2699-1.3068-2.7695-1.9052-4.2592-.1116-.2778-.2091-.5204-.2853-.707-.1982 0-.4073-.0008-.624-.0017h-.0003c-2.2402-.009-5.2953-.0213-5.6051.8601l-.0415.1717c-.4517 1.8732-.6415 2.6602-3.7017 3.6436-3.1817 1.0421-5.5366 1.3654-10.4457 1.0182-7.9393-.637-12.2094-1.432-19.6335-4.1245-.0911.9553-.1819 1.9395-.2122 2.8948-.0304.6082-.2122.9846-.5152 1.1585-.3029.1736-.5759.3183-.8181.4343-.0603.0256-.1243.0569-.2011.0944l-.0001.0001c-.2706.1323-.7006.3425-1.692.6581-1.2426.3763-1.8181-.3183-1.7274-2.1138.1215-1.7948.8603-9.94302 1.5827-11.79838-.6176-.02363-.9378-.00848-1.3684.0119-.3565.01687-.7886.03731-1.5278.04229-1.3037-.01099-1.5455-1.15808-1.5455-1.15808-.5152-1.4764-.4544-2.04029.1518-2.50337.6363-.43428 13.4391.30203 15.9231.86288 2.4839.56085 3.5351 1.41312 4.2625 3.0339.727 1.62192.6059 3.01117-.3337 4.11126-.9696 1.1293-2.6426 1.4287-5.256 1.8883 1.8663.7008 4.6618 1.1847 6.6997 1.5375h.0001c.7237.1253 1.3519.234 1.8089.33 0 0-1.1522-1.0213-.8477-3.6023.0864-.8263.4533-1.94713.7571-2.87538.1924-.58781.3594-1.09837.4141-1.40795-2.8253-.13453-1.4833-2.42909.0542-3.21504 4.7485-1.37371 11.1438-1.06865 15.0226-.08489.3637.14514.5155.37668.4548.6662-.0165.07456-.0339.16837-.0538.27485v.00009c-.1264.6789-.3487 1.8726-1.005 1.8726-3.6673 0-5.7268.08147-9.3026.37099-1.1742.08261-1.973 1.53363-1.1427 2.08917.0734-.00471.2321-.02351.457-.05017 1.1684-.13847 4.1227-.48859 6.1805-.17303.9396.2899 1.3918.77231.8166 2.27786l-.0542.118c-.3145.6853-.6225 1.3563-1.0236 1.4115 0 0-5.923.3028-6.7024.6404-.7798.3377-.1925 1.9566 3.504 1.8137 2.7269.2027 3.5659.0534 5.835-.6696.5603-1.3699 2.5519-4.5865 4.0302-6.77382 1.3572-2.00807 3.8062-4.7642 4.7094-4.79414 1.1886-.03865 2.5052 1.84588 3.5161 3.49623.1701.2776.3208.52271.4569.74392l.0032.00527.0005.00072c.6593 1.07229.9732 1.58264 1.4767 2.51515l2.8367-.06328.9339-5.06245c.1207-.60822.3321-.95041.7512-1.14861zm-11.693 6.84178c.8575-.13402 2.2542-.35234 3.3122-.31999.0304-.14438-.1955-1.02507-.7319-2.00353-.5137-.74502-.8219-1.03719-1.4631-.37289-.2781.28771-.6183.8425-.9952 1.4571-.2705.441-.5598.91279-.8586 1.33884.1 0 .3686-.042.7366-.09953zm-34.7718-.36589-.0038.08835c0 .57257 1.6108.48847 3.591.30847 1.957-.19251 2.9452-.57753 2.9452-1.48399-.016-1.31345-3.7523-1.52301-5.7291-1.42638-.6987.04438-.7759 1.86625-.8033 2.51355zm82.0493-7.08246c-.72-.06138-12.448.28486-13.654.56972-1.232.25496-1.708.96987-1.397 2.08964.282 1.14692.584 1.86891.901 2.22381.291.35372 1.682 1.07138 4.009.55477l-.423 9.56094c.008.0982.014.1909.019.2782.043.6969.065 1.0486 1.1 1.0458.474-.0024 2.124-.4411 2.616-1.7686.691-1.8598.904-5.3282 1.1-9.76829 3.059-.76606 3.779-.69996 3.664.03187.073.85301.314 1.68635.724 2.4709.559 1.15912 1.417 1.85042 2.57 2.13012-.023 1.1647-.047 2.0348-.071 2.9094v.0013.0009c-.024.8474-.048 1.6992-.07 2.8274.067.9954.206 1.3645.909 1.1414.122-.0415.25-.081.38-.1211.652-.2006 1.357-.4174 1.614-.9959.278-.6279.387-1.1277.636-2.275v-.0001l.002-.0081c.026-.1193.054-.2456.083-.3797.197-.9142.378-1.5813.545-2.1933v-.0007c.099-.3647.193-.7098.282-1.076 1.65-.2928 3.153-1.0171 4.509-2.17388 1.067-.91439 2.247-2.4347 2.615-3.86333.224-.66966.254-1.34877.09-2.03613-.096-.34467-.25-.60671-.463-.84397-.212-.20774-.486-.27699-.824-.17941-.309.09915-2.175 1.41801-4.725 3.22791-2.522 1.81186-4.525 1.9177-5.956.37811.124-.17961.239-.3421.344-.49072l.001-.00071c.747-1.05573.998-1.4108.572-2.22499-.418-.61458-.985-.95255-1.702-1.04226zm38.916 10.90268.004-.0036v.0044c-.002 0-.003 0-.004-.0008zm.023.006c.624.0339 2.319.0701 3.482-.0463 0 0 3.079-.264 4.433-.5076 1.955-.3518 3.665-.099 5.037.4541.304.1236.568.2552.782.3913 0 0 .23.1465.23.1465l.204.13-.158.1852s-.176.2065-.175.2061c-.574.6763-1.284 1.2161-2.115 1.6086-2.04.8816-3.682 1.3409-5.669 1.5853l-.241.0296c-.089.0109-.168.0207-.168.0207-.57.0712-1.218.1521-1.861.2121-1.396.1317-2.526.1864-3.557.1747-1.515-.0189-3.008-.1143-4.437-.2838-.52-.0616-1.195-.1916-1.808-.6537-.303-.2275-.538-.4396-.72-.6489-.137-.1586-.233-.3297-.316-.4787-.003-.006-.244.1158-.5.2457-.15.0761-.305.1549-.422.2124-.434.2162-2.858 1.1405-3.479 1.2584-1.563.2987-3.21.0085-4.517-.7978-1.025-.6308-1.856-1.5728-2.405-2.7229-.763-1.6001-.919-3.7248-.394-5.41149.215-.69119.467-1.26885.768-1.76721.257-.42509.565-.83046.914-1.20403.687-.73425 1.574-1.42302 2.496-1.9399.669-.37517 1.392-.67668 2.148-.89728.481-.14049.93-.23711 1.373-.29668.634-.08655 1.296-.126 1.969-.11956.758.00886 1.376.1731 1.89.50198.577.36834 1.15 1.07441 1.128 1.82034-.023.79262-.881 1.29984-1.144 1.4363-.094.04952-.471.20812-.76.32043l-.003.00092c-.576.22214-.992.38258-1.21-.00977 0 0-.872.01852-1.259.13526-.695.20973-1.393.51929-2.017.89608-.794.47984-1.794 1.1529-2.479 2.10816-.516.71895-.993 1.73455-.257 2.40605.589.5386 2.352.6864 3.586.6562 1.233-.0294 3.51-.5451 4.348-.8241.65-.2166 1.257-.5081 1.757-.7481.043-.0205.084-.0406.125-.0602 1.062-.509 2.157-.962 3.216-1.40009l.024-.01004s.712-.29507.712-.29507c.685-.285 1.389-.53579 2.076-.78014l.023-.00846c.721-.25642 2.37-.90252 2.371-.90332.813-.31359 1.193-.52976 1.185-.62879-.02-.21093-1.031-.19523-1.607-.13364 0 0-.19.02053-.192.02093-.454.04428-.918.1107-1.381.17793l-.01.00145c-.463.06638-.941.13497-1.426.18372-.099.00886-.206.02254-.309.03623l-.004.0005c-.658.08248-1.557.19513-2.183-.40547-.611-.58732-.26-1.56391-.023-2.22248.056-.1566.109-.30393.135-.40698.313-1.2749 2.02-1.44868 3.04-1.55255l.001-.0001c.111-.01046.218-.02133.312-.0326.816-.09823 1.689-.19121 2.59-.15861.462.01731.916.03663 1.375.08293.642.0636 1.309.1743 2.055.34378.983.31117 3.974 1.25837 3.829 3.86006-.108 1.96043-3.343 2.78204-3.478 2.81545-.3.08713-4.005 1.25176-4.812 1.50536l-.154.0485c-2.971 1.0454-3.713 1.5035-3.716 1.8368-.001.0077 1.128.2665 1.752.3003zm-7.07 2.1067v.0007-.0008s0 0 0-.0008zm20.37-1.5757c-.006.0068-.012.0133-.019.0201.012.0066.023.0129.035.0192l.007.0042-.005-.0334c-.006-.0033-.012-.0065-.018-.0101zm.034.3196c.005.0033.01.0061.015.0089l.015-.0149-.004-.0233c-.005.006-.011.0121-.016.0183-.003.0036-.007.0073-.01.011zm-35.13 1.4146c.073.191.101.4367.084.6814-.032.4634-.273.8598-.614 1.1731-.709.653-1.983.653-2.585-.153-.355-.4769-.379-1.2754-.136-1.8126.109-.2454.338-.5086.552-.6732.391-.2994.964-.3905 1.445-.3041.532.096 1.063.596 1.254 1.0884z" fill="#000"/><path d="m27.1484 1.07985c.4906-.880545.9655.45191 1.4091 2.11625.4402 1.65384 1.5667 3.37969-1.3933 3.60583-1.1196-.02213-2.1455-.12826-4.375-.0075-1.9849.10988-2.4136.20588-3.773.64953-.6613.22914-.6871.93868-.0879 1.3152.4202.26401 2.5291 1.04443 4.4332 1.79524 2.3585.9304 5.8103 2.087 7.2603 3.1682 2.1929 1.6339 2.0069 4.0794 1.1754 5.5113-.9224 1.5863-3.8239 2.309-7.6724 3.0568-4.4085.855-6.0118.8055-9.417.8726-3.7607.0747-8.14572.0593-11.64879-.2763-3.586645-.3443-3.193436-.8855-2.835657-1.0947.306942-.1785 1.660647-.1107 3.246967-.1748 2.75708-.1118 6.95568-.4864 10.21848-.9057 4.7088-.6034 7.2957-1.2165 9.3037-2.444 1.6838-1.0294.7114-2.0971.4456-2.2955-.672-.7913-3.2627-1.9197-5.5172-3.0677-3.2847-1.6722-5.7507-3.09501-6.3807-4.44508-.4872-1.04331-.414-2.35963.8126-3.54095 1.4345-1.38308 3.1137-2.12412 5.3501-2.6529 2.4405-.57678 3.83-.58841 5.7953-.64916 1.6079-.04913 3.3421.01463 3.6502-.53666" fill="#c00"/></g></svg>