<svg id="logo_cr" xmlns="http://www.w3.org/2000/svg" width="344.445" height="46.536" viewBox="0 0 344.445 46.536">
  <path id="Path_186" data-name="Path 186" d="M20.608-6.72a12.935,12.935,0,0,1-3.528.56c-4.48,0-7.9-3.528-7.9-12.544,0-9.352,3.752-12.936,7.9-12.936a7.383,7.383,0,0,1,3.416.728l1.232-6.16a10.079,10.079,0,0,0-5.1-1.008C9.3-38.08,1.4-32.536,1.4-18.312,1.4-7.56,5.992.336,15.68.336a14.732,14.732,0,0,0,5.656-.9Zm-3.08-33.04,4.536-6.16H16.856l-2.128,2.912h-.112L12.432-45.92H7.056l4.7,6.16Zm21,17.08H29.96v-8.68h9.072v-6.384H22.624V0H39.648V-6.384H29.96V-16.576h8.568Zm1.512,21.5A16.787,16.787,0,0,0,47.264.336C54.6.336,59.7-4.2,59.7-11.088c0-3.976-1.792-7.784-6.832-10.808-4.032-2.464-5.152-3.64-5.152-5.88,0-2.016,1.512-3.92,4.648-3.92a8.933,8.933,0,0,1,4.76,1.288L58.3-36.736A12.521,12.521,0,0,0,52.36-38.08c-7.84,0-11.872,5.04-11.872,11.088,0,3.416,1.96,7.392,7.112,10.528,3.192,2.072,4.872,3.416,4.872,6.16,0,2.464-1.736,4.256-5.152,4.256A14.521,14.521,0,0,1,41.1-7.5ZM61.264,0H68.6V-12.544l1.68-3.08L75.768,0h8.064L75.208-21.336,83.72-37.744H75.6l-5.04,12.1c-.616,1.624-1.176,3.3-1.792,4.872H68.6V-37.744H61.264Zm38.864-22.68H91.56v-8.68h9.072v-6.384H84.224V0h17.024V-6.384H91.56V-16.576h8.568ZM93.912-46.088,89.32-39.76h5.208l6.832-6.328Z" transform="translate(57.845 46.088)" fill="#1a171b"/>
  <path id="Path_187" data-name="Path 187" d="M3.248,0h7.336V-15.064H11.7c2.408,0,3.584,1.344,4.256,5.992A45.707,45.707,0,0,0,17.864,0h7.672c-.672-1.4-1.68-6.048-2.408-10.248-.728-4.088-2.016-6.44-4.592-7.5v-.112a10.012,10.012,0,0,0,5.824-9.408c0-3.248-.728-5.768-3.024-7.84-2.408-2.184-6.048-2.8-10.08-2.8a43.836,43.836,0,0,0-8.008.728Zm7.336-31.976a5.374,5.374,0,0,1,1.792-.224c3.248.112,4.536,2.352,4.536,5.6,0,3.3-1.792,5.88-4.984,5.88H10.584Zm32.144,9.3H34.16v-8.68h9.072v-6.384H26.824V0H43.848V-6.384H34.16V-16.576h8.568ZM58.912-8.624,60.536,0h7.112L60.312-37.744H51.52L43.344,0h7.112l1.68-8.624Zm-6.048-5.712,1.4-7.9c.392-2.184.952-6.048,1.344-8.568h.168c.336,2.464.84,6.272,1.232,8.568l1.232,7.9ZM69.048,0H86.016V-6.216H76.384V-37.744H69.048ZM87.584-37.744V0H94.92V-37.744ZM102.816,0h7.336V-30.968h6.72v-6.776H96.152v6.776h6.664Zm28.616,0V-14.728l8.456-23.016h-7.616l-2.24,8.848c-.672,2.688-1.288,5.432-1.736,8.176h-.112c-.56-2.8-1.288-5.6-2.016-8.008l-2.52-9.016h-7.84l8.288,23.3V0Z" transform="translate(160.845 46.088)" fill="#0073c0"/>
  <path id="Path_188" data-name="Path 188" d="M6.888.448c2.632,0,4.368-1.9,4.368-4.872C11.256-7.448,9.352-9.3,7-9.3A4.6,4.6,0,0,0,2.688-4.424C2.688-1.456,4.648.448,6.888.448Z" transform="translate(297.845 46.088)" fill="#0f71b3"/>
  <path id="Path_189" data-name="Path 189" d="M15.624-3.976a6.408,6.408,0,0,1-3.08.728c-3.976,0-6.384-3.808-6.384-10.136,0-5.32,1.9-10.472,6.272-10.472a7.034,7.034,0,0,1,3.08.728l.84-3.528a8.717,8.717,0,0,0-3.808-.84c-6.776,0-10.7,6.328-10.7,14.112,0,8.96,3.976,13.72,9.912,13.72A9.291,9.291,0,0,0,16.24-.672ZM18.088,0H33.544V-3.584H22.96V-3.7c.616-1.232,1.4-2.688,2.184-4.032L33.6-24.248V-27.1H19.152v3.584h9.632v.112c-.56,1.176-1.456,2.632-2.128,3.976l-8.568,16.8Z" transform="translate(310.845 46.088)" fill="#1a171b"/>
  <g id="Group_57" data-name="Group 57" transform="translate(-30.721 -39.635)">
    <g id="Group_56" data-name="Group 56" transform="translate(30.721 46.562)">
      <g id="Group_49" data-name="Group 49">
        <g id="Group_48" data-name="Group 48">
          <path id="Path_57" data-name="Path 57" d="M34.561,85.794a3.843,3.843,0,0,1-3.84-3.839V50.4a3.842,3.842,0,0,1,3.84-3.838H64.385a6.1,6.1,0,0,1,3.992,1.654S81.159,66.131,81.316,66.311c.013.014-12.727,17.832-12.727,17.832a6.126,6.126,0,0,1-4,1.651Z" transform="translate(-30.721 -46.562)" fill="#0073c0"/>
        </g>
      </g>
      <g id="Group_55" data-name="Group 55" transform="translate(3.908 4.026)">
        <g id="Group_50" data-name="Group 50" transform="translate(21.302 0.991)">
          <path id="Path_58" data-name="Path 58" d="M104.365,60.949a.491.491,0,0,0-.493-.5h-2.84a.5.5,0,0,0-.5.5v1.379l3.834,3.831Z" transform="translate(-100.531 -60.454)" fill="#fff"/>
        </g>
        <g id="Group_51" data-name="Group 51" transform="translate(0 0)">
          <path id="Path_59" data-name="Path 59" d="M63.2,68.061a8.552,8.552,0,0,1,1.674-2.44,8.121,8.121,0,0,1,.6-.556l-6.808-6.81a1.869,1.869,0,0,0-2.634,0L42.088,72.2a1.863,1.863,0,0,0,2.634,2.636L57.344,62.208Z" transform="translate(-41.542 -57.711)" fill="#fff"/>
        </g>
        <g id="Group_52" data-name="Group 52" transform="translate(13.478 6.619)">
          <path id="Path_60" data-name="Path 60" d="M99.984,78.124a7.306,7.306,0,0,0-12.361,4.348v0a7.291,7.291,0,0,0-.014,1.641v.012c.021.178.044.353.075.529a.425.425,0,0,1,.014.062c.029.158.064.317.1.474.012.045.027.09.041.135.036.132.072.265.118.394.027.083.064.165.094.247s.067.184.106.275c.075.173.154.344.242.511l-2.711,2.775L79.265,96.1a1.62,1.62,0,0,0-.4,1.023l.056,1.924a.627.627,0,0,0,.614.6l1.931.016a.578.578,0,0,0,.586-.589l-.016-.973a.594.594,0,0,1,.588-.6L83.6,97.5a.591.591,0,0,0,.587-.6l-.015-.975a.593.593,0,0,1,.588-.6l.932-.007h.041a.591.591,0,0,0,.587-.6l-.014-.975a.593.593,0,0,1,.586-.6l.975-.005a1.665,1.665,0,0,0,1.015-.432l.565-.578L91.62,89.9c.147.072.295.14.444.2.111.047.225.087.338.128.032.011.067.025.1.036.142.049.289.092.433.133h.007c.15.042.3.076.451.108h0c.057.012.113.027.171.036h.011c.113.022.229.038.345.054.024,0,.047,0,.069.009l.161.018.068.006c.175.014.349.025.527.028h.273c.113,0,.225-.008.336-.014a.215.215,0,0,0,.052,0l.166-.013.063-.008c.178-.018.357-.044.534-.075.018,0,.036-.007.054-.009.057-.012.116-.023.171-.036a.178.178,0,0,0,.036-.007c.125-.027.247-.057.368-.09h.005c.056-.016.116-.032.174-.051l.046-.013c.181-.055.361-.117.542-.189l.027-.011c.059-.023.118-.048.174-.072l.026-.013c.179-.077.354-.162.528-.256a.129.129,0,0,0,.027-.016,6.818,6.818,0,0,0,.7-.429.088.088,0,0,0,.018-.014c.166-.116.325-.239.485-.372l.021-.016c.181-.153.357-.317.53-.489a7.31,7.31,0,0,0-.118-10.337ZM88.84,88.641l-8.478,8.672a.283.283,0,0,1-.4.03.286.286,0,0,1,.023-.4l8.476-8.67a.281.281,0,0,1,.4-.031A.285.285,0,0,1,88.84,88.641Zm9.683-6.064a2.067,2.067,0,1,1,.588-1.47A2.067,2.067,0,0,1,98.523,82.577Z" transform="translate(-78.865 -76.041)" fill="#fff"/>
        </g>
        <g id="Group_53" data-name="Group 53" transform="translate(19.919 22.022)">
          <path id="Path_61" data-name="Path 61" d="M104.731,119.076a8.72,8.72,0,0,1-1.406-.382l-2.117,2.167a2.945,2.945,0,0,1-1.938.822l-.253,0,0,.255a1.9,1.9,0,0,1-1.881,1.927h-.259l0,.256a1.884,1.884,0,0,1-.188.85h5.894a2.2,2.2,0,0,0,2.2-2.2v-3.686l-.048-.008Z" transform="translate(-96.699 -118.694)" fill="#fff"/>
        </g>
        <g id="Group_54" data-name="Group 54" transform="translate(3.596 6.62)">
          <path id="Path_62" data-name="Path 62" d="M59.2,95.369V85.745H68.21v1.919l1.158-1.184a8.544,8.544,0,0,1-.353-5.132l-5.309-5.306L51.5,88.246v7.277a2.2,2.2,0,0,0,2.2,2.2h6.4l-.018-.556a2.974,2.974,0,0,1,.618-1.8Z" transform="translate(-51.5 -76.042)" fill="#fff"/>
        </g>
      </g>
    </g>
  </g>
</svg>
